<svg version="1.1" id="Layer_1" xmlns="http://www.w3.org/2000/svg" xmlns:xlink="http://www.w3.org/1999/xlink" x="0px" y="0px"
	 width="100%" viewBox="0 0 496 496" enable-background="new 0 0 496 496" xml:space="preserve">
<path fill="#000000" opacity="1.000000" stroke="none" 
	d="
M228.847504,178.000000 
	C228.852692,168.000092 229.002396,158.497070 228.797516,149.001709 
	C228.707672,144.837662 230.263351,143.541641 234.350159,143.580475 
	C252.015076,143.748352 269.683990,143.775330 287.347992,143.562073 
	C291.818390,143.508102 293.080261,145.143387 293.078003,149.378189 
	C293.072662,159.363434 293.239319,159.367477 283.544586,159.367096 
	C273.544678,159.366699 263.542419,159.480652 253.546082,159.288742 
	C249.800247,159.216812 248.142700,160.157196 248.221008,164.296600 
	C248.451096,176.458817 248.470642,188.631653 248.215698,200.792831 
	C248.127014,205.023758 249.916260,205.808289 253.569046,205.759323 
	C264.733612,205.609634 275.904266,205.846954 287.066589,205.629288 
	C291.265717,205.547394 293.096161,206.717377 293.049164,211.224503 
	C292.920532,223.556839 292.930115,221.199020 283.206604,221.325958 
	C273.375000,221.454269 263.536652,221.515213 253.709045,221.280563 
	C249.636749,221.183350 248.183441,222.402847 248.234650,226.629944 
	C248.436508,243.293945 248.194412,259.963257 248.389328,276.627441 
	C248.438583,280.838348 247.420898,282.491760 242.854660,282.469879 
	C228.839340,282.402740 228.847015,282.588501 228.849243,268.499207 
	C228.854004,238.499466 228.848953,208.499741 228.847504,178.000000 
z"/>
<path fill="#000000" opacity="1.000000" stroke="none" 
	d="
M215.539246,215.612946 
	C203.234390,209.014206 194.267380,200.518539 192.469803,185.986923 
	C190.173782,167.425690 201.768646,154.627487 212.884247,149.343842 
	C215.687408,148.011414 218.654724,147.024292 222.973282,145.313232 
	C221.272980,153.459839 225.181168,160.895172 217.746811,167.233200 
	C209.340714,174.399704 209.911514,188.082520 218.387619,195.022720 
	C221.848816,197.856720 222.798843,200.770294 222.509674,204.872559 
	C222.219757,208.985245 222.445969,213.134293 222.445969,217.120407 
	C219.479736,218.234604 217.769501,216.625366 215.539246,215.612946 
z"/>
<path fill="#000000" opacity="1.000000" stroke="none" 
	d="
M282.994507,273.954834 
	C275.335327,281.958954 266.276123,286.343872 255.096909,287.856262 
	C254.343155,282.844360 254.569366,278.087494 254.861359,273.354156 
	C254.985184,271.346985 256.957886,270.924133 258.444702,270.295471 
	C266.558014,266.865082 271.250000,260.957855 271.631989,252.015549 
	C272.033295,242.621307 267.559875,236.216110 259.267792,232.146912 
	C257.770569,231.412170 255.631439,231.155243 255.362381,228.774765 
	C256.852753,227.152512 258.784241,227.768692 260.513794,227.746796 
	C266.508423,227.670883 272.516205,227.931610 278.495789,227.619354 
	C282.600189,227.405029 284.996674,229.194672 286.908600,232.518692 
	C294.165466,245.135345 292.658386,262.530731 282.994507,273.954834 
z"/>
<path fill="#000000" opacity="1.000000" stroke="none" 
	d="
M209.446976,256.433044 
	C211.577667,260.933746 214.371521,264.516418 218.317184,266.827393 
	C221.676468,268.794861 222.840103,271.354584 222.453583,275.058319 
	C222.094223,278.501862 222.867310,282.027435 221.738815,285.982391 
	C213.440521,284.392517 206.487167,280.372711 200.448242,274.885345 
	C193.464310,268.539276 189.138443,260.593811 187.841873,251.114288 
	C187.354584,247.551514 187.985291,245.112259 192.367142,245.656799 
	C193.022797,245.738281 193.698669,245.641907 194.364258,245.660751 
	C198.184891,245.768997 202.503693,244.817368 205.686707,246.300354 
	C208.923813,247.808533 207.454102,252.960342 209.446976,256.433044 
z"/>
<path fill="#000000" opacity="1.000000" stroke="none" 
	d="
M283.414978,165.804260 
	C288.674530,168.043045 288.652130,172.985794 290.111816,177.051361 
	C290.604858,178.424561 290.440216,180.020569 290.815735,181.451874 
	C291.863281,185.444565 290.170380,187.054016 286.299988,186.944855 
	C285.637848,186.926178 284.973694,186.976089 284.311768,186.954422 
	C280.675781,186.835480 276.772095,187.496384 273.471344,186.379425 
	C269.205048,184.935745 271.256683,179.998047 270.032135,176.746887 
	C268.689667,173.182724 266.214905,170.275940 264.246002,165.761063 
	C270.951996,165.761063 276.965302,165.761063 283.414978,165.804260 
z"/>
</svg>